<?xml version="1.0" encoding="utf-8"?>
<!-- Generator: Adobe Illustrator 26.5.0, SVG Export Plug-In . SVG Version: 6.00 Build 0)  -->
<svg version="1.1" id="Capa_1" xmlns="http://www.w3.org/2000/svg" xmlns:xlink="http://www.w3.org/1999/xlink" x="0px" y="0px"
	 viewBox="0 0 90 65" style="enable-background:new 0 0 90 65;" xml:space="preserve">
<style type="text/css">
	.st0{fill:#E4291C;}
</style>
<path class="st0" d="M29.8,28.5c0,0.6,0.7-0.2,0.8-0.4C30.3,28.1,30.3,28.6,29.8,28.5z M29.8,28.5c0,0.6,0.7-0.2,0.8-0.4
	C30.3,28.1,30.3,28.6,29.8,28.5z M29.8,28.5c0,0.6,0.7-0.2,0.8-0.4C30.3,28.1,30.3,28.6,29.8,28.5z M29.8,28.5
	c0,0.6,0.7-0.2,0.8-0.4C30.3,28.1,30.3,28.6,29.8,28.5z M29.8,28.5c0,0.6,0.7-0.2,0.8-0.4C30.3,28.1,30.3,28.6,29.8,28.5z
	 M29.8,28.5c0,0.6,0.7-0.2,0.8-0.4C30.3,28.1,30.3,28.6,29.8,28.5z M29.8,28.5c0,0.6,0.7-0.2,0.8-0.4C30.3,28.1,30.3,28.6,29.8,28.5
	z M29.8,28.5c0,0.6,0.7-0.2,0.8-0.4C30.3,28.1,30.3,28.6,29.8,28.5z M29.8,28.5c0,0.6,0.7-0.2,0.8-0.4
	C30.3,28.1,30.3,28.6,29.8,28.5z M59.1,30.5c0,0-0.1,0-0.1,0c1,2-1.4,1.6-2.5,2.2c-0.2-0.2-0.4-0.1-0.7,0c-0.4-0.4-1.1-0.4-1.7-0.4
	c-0.1-0.2-0.4-0.3-0.7-0.2c-0.3-0.5-0.8-0.7-1.2-0.9c0-0.2-0.1-0.4-0.4-0.4c-0.1-0.5-0.4-1-0.9-1.2c0.1-0.3,0-0.5-0.3-0.6
	c-0.1-0.5-0.2-1.2-0.7-1.5c0.1-0.3,0.1-0.4-0.2-0.6c0.1-0.7-0.4-1.1-1.1-1.2c0-0.2,0-0.4-0.2-0.6c0.1-0.6,0.5-1,1.1-1.1
	c-0.7-0.1-1.1,0.4-1.3,1c0.1,0.3,0.2,0.5,0.3,0.8c0.5,0.2,1,0.4,1,1c0.8,2,1.8,4.2,3.8,5.3C54.8,32.9,60.8,33.3,59.1,30.5z
	 M51.9,43.4c0.2-1.7-2.1-7.2-4-4.7c0,0,0,0,0,0c0,0,0.1,0,0.1,0c0.3-0.4,0.8-0.4,1.2-0.5c0.3,0.1,0.5,0.4,0.8,0.4
	c0,0.3,0.1,0.5,0.4,0.5c0.2,0.5,0.4,1,0.9,1.3c-0.1,0.2,0,0.3,0.2,0.4c0,0,0,0,0,0c0,0.6,0.2,1.2,0.5,1.7c0,0,0.1,0,0.1,0
	c-0.3,0.4-0.3,0.9-0.1,1.3c-0.2,1-0.5,1.2-1.5,1.1c0,0,0,0.1,0,0.1C51.5,45.6,52,44.6,51.9,43.4z M29.8,28.5c0,0.6,0.7-0.2,0.8-0.4
	C30.3,28.1,30.3,28.6,29.8,28.5z M29.8,28.5c0,0.6,0.7-0.2,0.8-0.4C30.3,28.1,30.3,28.6,29.8,28.5z M59.1,30.5c0,0-0.1,0-0.1,0
	c1,2-1.4,1.6-2.5,2.2c-0.2-0.2-0.4-0.1-0.7,0c-0.4-0.4-1.1-0.4-1.7-0.4c-0.1-0.2-0.4-0.3-0.7-0.2c-0.3-0.5-0.8-0.7-1.2-0.9
	c0-0.2-0.1-0.4-0.4-0.4c-0.1-0.5-0.4-1-0.9-1.2c0.1-0.3,0-0.5-0.3-0.6c-0.1-0.5-0.2-1.2-0.7-1.5c0.1-0.3,0.1-0.4-0.2-0.6
	c0.1-0.7-0.4-1.1-1.1-1.2c0-0.2,0-0.4-0.2-0.6c0.1-0.6,0.5-1,1.1-1.1c-0.7-0.1-1.1,0.4-1.3,1c0.1,0.3,0.2,0.5,0.3,0.8
	c0.5,0.2,1,0.4,1,1c0.8,2,1.8,4.2,3.8,5.3C54.8,32.9,60.8,33.3,59.1,30.5z M51.9,43.4c0.2-1.7-2.1-7.2-4-4.7c0,0,0,0,0,0
	c0,0,0.1,0,0.1,0c0.3-0.4,0.8-0.4,1.2-0.5c0.3,0.1,0.5,0.4,0.8,0.4c0,0.3,0.1,0.5,0.4,0.5c0.2,0.5,0.4,1,0.9,1.3
	c-0.1,0.2,0,0.3,0.2,0.4c0,0,0,0,0,0c0,0.6,0.2,1.2,0.5,1.7c0,0,0.1,0,0.1,0c-0.3,0.4-0.3,0.9-0.1,1.3c-0.2,1-0.5,1.2-1.5,1.1
	c0,0,0,0.1,0,0.1C51.5,45.6,52,44.6,51.9,43.4z M41.7,41.7c-1.4-2.4-3.5,1.9-3.9,3.2c0.2,0.4,0.3,0.8-0.2,1.1
	c-0.2,1.3,0.8,3.1,2.1,1.6c0.2-0.6-0.2-1.3,0.1-2c0,0,0,0,0,0c0.1-1.3,1.1-2.3,1.8-3.3C41.8,42.1,41.8,41.9,41.7,41.7z M29.8,28.5
	c0,0.6,0.7-0.2,0.8-0.4C30.3,28.1,30.3,28.6,29.8,28.5z M29.8,28.5c0,0.6,0.7-0.2,0.8-0.4C30.3,28.1,30.3,28.6,29.8,28.5z
	 M41.7,41.7c-1.7-2.8-4.6,3.6-4,5.2c-0.1,1.2,1.4,1.6,2,0.7c0.2-0.6-0.2-1.3,0.1-2c0,0,0,0,0,0c0.1-1.3,1.1-2.3,1.8-3.3
	C41.8,42.1,41.8,41.9,41.7,41.7z M51.9,43.4c0.2-1.7-2.1-7.2-4-4.7c-0.1,0.6,0.3,1,0.6,1.4h0v0c1.2,1.1,1.5,2.8,1.3,4.3
	c0.2,0.2,0.3,0.4,0.5,0.6C51.5,45.6,52,44.6,51.9,43.4z M59.1,30.5c0,0-0.1,0-0.1,0c1,2-1.4,1.6-2.5,2.2c-0.2-0.2-0.4-0.1-0.7,0
	c-0.4-0.4-1.1-0.4-1.7-0.4c-0.1-0.2-0.4-0.3-0.7-0.2c-0.3-0.5-0.8-0.7-1.2-0.9c0-0.2-0.1-0.4-0.4-0.4c-0.1-0.5-0.4-1-0.9-1.2
	c0.1-0.3,0-0.5-0.3-0.6c-0.1-0.5-0.2-1.2-0.7-1.5c0.1-0.3,0.1-0.4-0.2-0.6c0.1-0.7-0.4-1.1-1.1-1.2c0-0.2,0-0.4-0.2-0.6
	c0.1-0.6,0.5-1,1.1-1.1c-0.7-0.1-1.1,0.4-1.3,1c0.1,0.3,0.2,0.5,0.3,0.8c0.5,0.2,1,0.4,1,1c0.8,2,1.8,4.2,3.8,5.3
	C54.8,32.9,60.8,33.3,59.1,30.5z M51.9,43.4c0.2-1.7-2.1-7.2-4-4.7c-0.1,0.6,0.3,1,0.6,1.4h0v0c1.2,1.1,1.5,2.8,1.3,4.3
	c0.2,0.2,0.3,0.4,0.5,0.6C51.5,45.6,52,44.6,51.9,43.4z M41.7,41.7c-1.7-2.8-4.6,3.6-4,5.2c-0.1,1.2,1.4,1.6,2,0.7
	c0.2-0.6-0.2-1.3,0.1-2c0,0,0,0,0,0c0.1-1.3,1.1-2.3,1.8-3.3C41.8,42.1,41.8,41.9,41.7,41.7z M29.8,28.5c0,0.6,0.7-0.2,0.8-0.4
	C30.3,28.1,30.3,28.6,29.8,28.5z M29.8,28.5c0,0.6,0.7-0.2,0.8-0.4C30.3,28.1,30.3,28.6,29.8,28.5z M41.7,41.7
	c-1.7-2.8-4.6,3.6-4,5.2c-0.1,1.2,1.4,1.6,2,0.7c0.2-0.6-0.2-1.3,0.1-2c0,0,0,0,0,0c0.1-1.3,1.1-2.3,1.8-3.3
	C41.8,42.1,41.8,41.9,41.7,41.7z M51.9,43.4c0.2-1.7-2.1-7.2-4-4.7c-0.1,0.6,0.3,1,0.6,1.4h0v0c1.2,1.1,1.5,2.8,1.3,4.3
	c0.2,0.2,0.3,0.4,0.5,0.6C51.5,45.6,52,44.6,51.9,43.4z M59.1,30.5c0,0-0.1,0-0.1,0c1,2-1.4,1.6-2.5,2.2c-0.2-0.2-0.4-0.1-0.7,0
	c-0.4-0.4-1.1-0.4-1.7-0.4c-0.1-0.2-0.4-0.3-0.7-0.2c-0.3-0.5-0.8-0.7-1.2-0.9c0-0.2-0.1-0.4-0.4-0.4c-0.1-0.5-0.4-1-0.9-1.2
	c0.1-0.3,0-0.5-0.3-0.6c-0.1-0.5-0.2-1.2-0.7-1.5c0.1-0.3,0.1-0.4-0.2-0.6c0.1-0.7-0.4-1.1-1.1-1.2c0-0.2,0-0.4-0.2-0.6
	c0.1-0.6,0.5-1,1.1-1.1c-0.7-0.1-1.1,0.4-1.3,1c0.1,0.3,0.2,0.5,0.3,0.8c0.5,0.2,1,0.4,1,1c0.8,2,1.8,4.2,3.8,5.3
	C54.8,32.9,60.8,33.3,59.1,30.5z M51.9,43.4c0.2-1.7-2.1-7.2-4-4.7c-0.1,0.6,0.3,1,0.6,1.4h0v0c1.2,1.1,1.5,2.8,1.3,4.3
	c0.2,0.2,0.3,0.4,0.5,0.6C51.5,45.6,52,44.6,51.9,43.4z M41.7,41.7c-1.7-2.8-4.6,3.6-4,5.2c-0.1,1.2,1.4,1.6,2,0.7
	c0.2-0.6-0.2-1.3,0.1-2c0,0,0,0,0,0c0.1-1.3,1.1-2.3,1.8-3.3C41.8,42.1,41.8,41.9,41.7,41.7z M29.8,28.5c0,0.6,0.7-0.2,0.8-0.4
	C30.3,28.1,30.3,28.6,29.8,28.5z M29.8,28.5c0,0.6,0.7-0.2,0.8-0.4C30.3,28.1,30.3,28.6,29.8,28.5z M41.7,41.7
	c-1.7-2.8-4.6,3.6-4,5.2c-0.1,1.2,1.4,1.6,2,0.7c0.2-0.6-0.2-1.3,0.1-2c0,0,0,0,0,0c0.1-1.3,1.1-2.3,1.8-3.3
	C41.8,42.1,41.8,41.9,41.7,41.7z M51.9,43.4c0.2-1.7-2.1-7.2-4-4.7c-0.1,0.6,0.3,1,0.6,1.4h0v0c1.2,1.1,1.5,2.8,1.3,4.3
	c0.2,0.2,0.3,0.4,0.5,0.6C51.5,45.6,52,44.6,51.9,43.4z M59.1,30.5c0,0-0.1,0-0.1,0c1,2-1.4,1.6-2.5,2.2c-0.2-0.2-0.4-0.1-0.7,0
	c-0.4-0.4-1.1-0.4-1.7-0.4c-0.1-0.2-0.4-0.3-0.7-0.2c-0.3-0.5-0.8-0.7-1.2-0.9c0-0.2-0.1-0.4-0.4-0.4c-0.1-0.5-0.4-1-0.9-1.2
	c0.1-0.3,0-0.5-0.3-0.6c-0.1-0.5-0.2-1.2-0.7-1.5c0.1-0.3,0.1-0.4-0.2-0.6c0.1-0.7-0.4-1.1-1.1-1.2c0-0.2,0-0.4-0.2-0.6
	c0.1-0.6,0.5-1,1.1-1.1c-0.7-0.1-1.1,0.4-1.3,1c0.1,0.3,0.2,0.5,0.3,0.8c0.5,0.2,1,0.4,1,1c0.8,2,1.8,4.2,3.8,5.3
	C54.8,32.9,60.8,33.3,59.1,30.5z M51.9,43.4c0.2-1.7-2.1-7.2-4-4.7c-0.1,0.6,0.3,1,0.6,1.4h0v0c1.2,1.1,1.5,2.8,1.3,4.3
	c0.2,0.2,0.3,0.4,0.5,0.6C51.5,45.6,52,44.6,51.9,43.4z M41.7,41.7c-1.7-2.8-4.6,3.6-4,5.2c-0.1,1.2,1.4,1.6,2,0.7
	c0.2-0.6-0.2-1.3,0.1-2c0,0,0,0,0,0c0.1-1.3,1.1-2.3,1.8-3.3C41.8,42.1,41.8,41.9,41.7,41.7z M29.8,28.5c0,0.6,0.7-0.2,0.8-0.4
	C30.3,28.1,30.3,28.6,29.8,28.5z M29.8,28.5c0,0.6,0.7-0.2,0.8-0.4C30.3,28.1,30.3,28.6,29.8,28.5z M41.7,41.7
	c-1.7-2.8-4.6,3.6-4,5.2c-0.1,1.2,1.4,1.6,2,0.7c0.2-0.6-0.2-1.3,0.1-2c0,0,0,0,0,0c0.1-1.3,1.1-2.3,1.8-3.3
	C41.8,42.1,41.8,41.9,41.7,41.7z M59.1,30.5c-1.1-0.5-2.2,0.4-3.3,0.1c-0.2,0-0.4,0-0.6-0.1c-0.6,0-1.1-0.3-1.5-0.8
	c-0.7-0.6-1.2-1.5-1.5-2.4c-0.4-0.7-0.6-1.4-0.9-2.1c-0.6-1.1-2.6-1.8-2.9-0.1c0.1,0.3,0.2,0.5,0.3,0.8c0.5,0.2,1,0.4,1,1
	c0.8,2,1.8,4.2,3.8,5.3C54.8,32.9,60.8,33.3,59.1,30.5z M51.9,43.4c0.2-1.7-2.1-7.2-4-4.7c-0.1,0.6,0.3,1,0.6,1.4h0v0
	c1.2,1.1,1.5,2.8,1.3,4.3c0.2,0.2,0.3,0.4,0.5,0.6C51.5,45.6,52,44.6,51.9,43.4z M59.1,30.5c-1.1-0.5-2.2,0.4-3.3,0.1
	c-0.2,0-0.4,0-0.6-0.1c-0.6,0-1.1-0.3-1.5-0.8c-0.7-0.6-1.2-1.5-1.5-2.4c-0.4-0.7-0.6-1.4-0.9-2.1c-0.6-1.1-2.6-1.8-2.9-0.1
	c0.1,0.3,0.2,0.5,0.3,0.8c0.5,0.2,1,0.4,1,1c0.8,2,1.8,4.2,3.8,5.3C54.8,32.9,60.8,33.3,59.1,30.5z M51.9,42.6
	c-0.3-1.6-2.1-6.2-4-3.9c-0.1,0.6,0.3,1,0.6,1.4h0v0c1.2,1.1,1.5,2.8,1.3,4.3c0.2,0.2,0.3,0.4,0.5,0.6C51.9,45.7,52,43.8,51.9,42.6z
	 M41.7,41.7c-1.7-2.8-4.6,3.6-4,5.2c-0.1,1.2,1.4,1.6,2,0.7c0.2-0.6-0.2-1.3,0.1-2c0,0,0,0,0,0c0.1-1.3,1.1-2.3,1.8-3.3
	C41.8,42.1,41.8,41.9,41.7,41.7z M29.8,28.5c0,0.6,0.7-0.2,0.8-0.4C30.3,28.1,30.3,28.6,29.8,28.5z M63.7,30.8
	C63.4,30,63.5,29,63,28.4c-0.2-0.4-0.5-0.7-0.5-1.2c0-0.5,0.3-1,0-1.5c-0.1-0.6-0.1-1.2-0.2-1.8c-0.3-2-1.4-4.4-3.2-5.5
	c-0.9-0.5-2.3-0.3-2.6-1.5c-0.9-1.5-2.5-1.6-3.9-2.1c-0.6-0.5-1.2-0.9-1.9-1.2c-1.6-0.7-3.3-0.5-4.8,0.2c-0.4,0.4-0.8,0.4-1.2,0
	c-2.3-1.2-4.7-0.9-6.6,0.8c-1.6,0.6-3.3,0.7-4.2,2.4c-5.1,3-6.1,5-6.1,11c-1.7,3.3-1.1,7.5,1.9,9.8c0.2,2.7,0.6,5.5,2.9,7.3
	c0.5,0.7-0.1,1.6,0.5,2.2c0.5,1.3,1.3,2.1,2.5,2.6c1.2,0.7,1.8,2.1,3,2.8c1.9,1.7,4.7,1.3,6.3-0.7c0.1-0.1,0.2-0.6,0.5-0.1
	c2.3,3.4,6.4,2,8.4-1c1.7-1.6,3.9-2,3.9-4.9c-0.1-0.5,0.1-0.9,0.5-1.2c1.5-1.2,2.7-3.1,2.5-5c0.1-0.7-0.3-1.6,0.2-2.1
	c0.8-0.6,1.5-1.5,2-2.4C63.8,34.2,63.9,32.1,63.7,30.8z M42.6,51.3c-3.1,1.7-4.1-3.3-6.8-3.7c-1.2-0.8-0.5-2.3-0.6-3.4
	c-0.4-0.7-1.2-0.7-1.6-1.2c-1.2-0.8-1.7-2.3-1.7-3.8c4,1.9,5.3-2.7,6.2-0.8c1,1.3,3.2,0.6,2.1-1c-0.6-0.4-1.3-0.9-1.5-1.7
	c-0.6-1.5-0.5-4,0.8-5.1c1.2-0.5,2.1-2.1,3.6-1.8c1-0.8,0.9-1.6-0.4-2.1c-2.4-0.2-3.7,2.7-6.1,2.9c-1.8,0.5-3.2-1-4.4-2.1
	c-0.2,0-0.5,0-0.7,0c-0.3,0.2-0.6,0.4-0.8,0.8c0.6,2.3,3.5,3.6,5.7,3.5c0.5,0,0.3,0.2,0.2,0.4l-0.2,2.4c0.1,5.5-6.5,2.4-7.2-1
	c-1.1-2.4,1.3-4.5,1-6.8c-0.6-4.8,4.3-10.3,6.9-3.9c0.1,0.7,0.2,1.4,1.1,1.5c2.9-1.1-0.5-5.3-2.4-6.1c0.6-0.8,1.3-1.2,2.3-1.1
	c0.4,0.1,0.7-0.2,0.9-0.4c1.2-1.2,3.3-2,4.8-1c0.8,0.1,0.3,1.2,0.4,1.8c0,1.2,0,20.5,0,21c0,2.4,0,6.6,0,9
	C44.4,49,44,50.4,42.6,51.3z M61.5,33.2c-0.4,2-2.3,3.6-4.2,4.2c-1.8,0.7-2.8-1.4-3.5-2.7c-4.7-1.2,1.1,7.1,4.8,4.4
	c0.4,4.3-3.7,3.7-3.3,6c0.3,3.9-1.7,1.7-3.3,4.4c-0.9,1.3-3,3.1-4.5,1.4c-0.5-0.5-1.3-1.2-1.2-2.1c0,0,0-30.7,0-30.7
	c0-0.4,0-0.8,0-1.2c-0.3-2,2.2-2.1,3.5-1.5c0.8,0.2,1.4,0.8,1.9,1.4c0.5,0.4,1.1,0,1.7,0.3c0.6,0,1.1,0.5,1.4,1
	c-1.9,1-3.8,3.3-3.4,5.5c0.8,1.2,2.1,0.4,2.1-0.8c1-4.4,5.7-3.5,6.6,0.5c0.5,1.5,0.4,3.1,0.3,4.6C61.3,29.5,62.1,31.4,61.5,33.2z
	 M59,30.4c-1.1-0.4-2.1,0.5-3.2,0.2c-0.2,0-0.4,0-0.6-0.1c-0.6,0-1.1-0.3-1.5-0.8c-0.7-0.6-1.2-1.5-1.5-2.4
	c-0.4-0.7-0.6-1.4-0.9-2.1c-0.6-1.1-2.6-1.8-2.9-0.1c0.1,0.3,0.2,0.5,0.3,0.8c0.5,0.2,1,0.4,1,1c0.8,2,1.8,4.2,3.8,5.3
	C54.8,32.9,60.8,33.3,59,30.4C59,30.4,59,30.4,59,30.4z M51.9,42.6c-0.3-1.6-2.1-6.2-4-3.9c-0.1,0.6,0.3,1,0.6,1.4h0v0
	c1.2,1.1,1.5,2.8,1.3,4.3c0.2,0.2,0.3,0.4,0.5,0.6C51.9,45.7,52,43.8,51.9,42.6z M41.5,41.2c-2.3-1.1-4.1,4-3.7,5.8
	c-0.1,1.2,1.4,1.6,2,0.7c0.2-0.6-0.2-1.3,0.1-2c0,0,0,0,0,0c0.1-1.3,1.1-2.3,1.8-3.3C41.8,41.9,41.7,41.5,41.5,41.2z M29.8,28.5
	c0,0.6,0.7-0.2,0.8-0.4C30.3,28.1,30.3,28.6,29.8,28.5z M29.8,28.5c0,0.6,0.7-0.2,0.8-0.4C30.3,28.1,30.3,28.6,29.8,28.5z
	 M41.7,41.7c-1.7-2.8-4.6,3.6-4,5.2c-0.1,1.2,1.4,1.6,2,0.7c0.2-0.6-0.2-1.3,0.1-2c0,0,0,0,0,0c0.1-1.3,1.1-2.3,1.8-3.3
	C41.8,42.1,41.8,41.9,41.7,41.7z M51.9,43.4c0.2-1.7-2.1-7.2-4-4.7c-0.1,0.6,0.3,1,0.6,1.4h0v0c1.2,1.1,1.5,2.8,1.3,4.3
	c0.2,0.2,0.3,0.4,0.5,0.6C51.5,45.6,52,44.6,51.9,43.4z M59.1,30.5c0,0-0.1,0-0.1,0c1,2-1.4,1.6-2.5,2.2c-0.2-0.2-0.4-0.1-0.7,0
	c-0.4-0.4-1.1-0.4-1.7-0.4c-0.1-0.2-0.4-0.3-0.7-0.2c-0.3-0.5-0.8-0.7-1.2-0.9c0-0.2-0.1-0.4-0.4-0.4c-0.1-0.5-0.4-1-0.9-1.2
	c0.1-0.3,0-0.5-0.3-0.6c-0.1-0.5-0.2-1.2-0.7-1.5c0.1-0.3,0.1-0.4-0.2-0.6c0.1-0.7-0.4-1.1-1.1-1.2c0-0.2,0-0.4-0.2-0.6
	c0.1-0.6,0.5-1,1.1-1.1c-0.7-0.1-1.1,0.4-1.3,1c0.1,0.3,0.2,0.5,0.3,0.8c0.5,0.2,1,0.4,1,1c0.8,2,1.8,4.2,3.8,5.3
	C54.8,32.9,60.8,33.3,59.1,30.5z M51.9,43.4c0.2-1.7-2.1-7.2-4-4.7c-0.1,0.6,0.3,1,0.6,1.4h0v0c1.2,1.1,1.5,2.8,1.3,4.3
	c0.2,0.2,0.3,0.4,0.5,0.6C51.5,45.6,52,44.6,51.9,43.4z M41.7,41.7c-1.7-2.8-4.6,3.6-4,5.2c-0.1,1.2,1.4,1.6,2,0.7
	c0.2-0.6-0.2-1.3,0.1-2c0,0,0,0,0,0c0.1-1.3,1.1-2.3,1.8-3.3C41.8,42.1,41.8,41.9,41.7,41.7z M29.8,28.5c0,0.6,0.7-0.2,0.8-0.4
	C30.3,28.1,30.3,28.6,29.8,28.5z M29.8,28.5c0,0.6,0.7-0.2,0.8-0.4C30.3,28.1,30.3,28.6,29.8,28.5z M41.7,41.7
	c-1.7-2.8-4.6,3.6-4,5.2c-0.1,1.2,1.4,1.6,2,0.7c0.2-0.6-0.2-1.3,0.1-2c0,0,0,0,0,0c0.1-1.3,1.1-2.3,1.8-3.3
	C41.8,42.1,41.8,41.9,41.7,41.7z M51.9,43.4c0.2-1.7-2.1-7.2-4-4.7c-0.1,0.6,0.3,1,0.6,1.4h0v0c1.2,1.1,1.5,2.8,1.3,4.3
	c0.2,0.2,0.3,0.4,0.5,0.6C51.5,45.6,52,44.6,51.9,43.4z M59.1,30.5c0,0-0.1,0-0.1,0c1,2-1.4,1.6-2.5,2.2c-0.2-0.2-0.4-0.1-0.7,0
	c-0.4-0.4-1.1-0.4-1.7-0.4c-0.1-0.2-0.4-0.3-0.7-0.2c-0.3-0.5-0.8-0.7-1.2-0.9c0-0.2-0.1-0.4-0.4-0.4c-0.1-0.5-0.4-1-0.9-1.2
	c0.1-0.3,0-0.5-0.3-0.6c-0.1-0.5-0.2-1.2-0.7-1.5c0.1-0.3,0.1-0.4-0.2-0.6c0.1-0.7-0.4-1.1-1.1-1.2c0-0.2,0-0.4-0.2-0.6
	c0.1-0.6,0.5-1,1.1-1.1c-0.7-0.1-1.1,0.4-1.3,1c0.1,0.3,0.2,0.5,0.3,0.8c0.5,0.2,1,0.4,1,1c0.8,2,1.8,4.2,3.8,5.3
	C54.8,32.9,60.8,33.3,59.1,30.5z M51.9,43.4c0.2-1.7-2.1-7.2-4-4.7c-0.1,0.6,0.3,1,0.6,1.4h0v0c1.2,1.1,1.5,2.8,1.3,4.3
	c0.2,0.2,0.3,0.4,0.5,0.6C51.5,45.6,52,44.6,51.9,43.4z M41.7,41.7c-1.7-2.8-4.6,3.6-4,5.2c-0.1,1.2,1.4,1.6,2,0.7
	c0.2-0.6-0.2-1.3,0.1-2c0,0,0,0,0,0c0.1-1.3,1.1-2.3,1.8-3.3C41.8,42.1,41.8,41.9,41.7,41.7z M29.8,28.5c0,0.6,0.7-0.2,0.8-0.4
	C30.3,28.1,30.3,28.6,29.8,28.5z M29.8,28.5c0,0.6,0.7-0.2,0.8-0.4C30.3,28.1,30.3,28.6,29.8,28.5z M41.7,41.7
	c-1.7-2.8-4.6,3.6-4,5.2c-0.1,1.2,1.4,1.6,2,0.7c0.2-0.6-0.2-1.3,0.1-2c0,0,0,0,0,0c0.1-1.3,1.1-2.3,1.8-3.3
	C41.8,42.1,41.8,41.9,41.7,41.7z M51.9,43.4c0.2-1.7-2.1-7.2-4-4.7c-0.1,0.6,0.3,1,0.6,1.4h0v0c1.2,1.1,1.5,2.8,1.3,4.3
	c0.2,0.2,0.3,0.4,0.5,0.6C51.5,45.6,52,44.6,51.9,43.4z M59.1,30.5c0,0-0.1,0-0.1,0c1,2-1.4,1.6-2.5,2.2c-0.2-0.2-0.4-0.1-0.7,0
	c-0.4-0.4-1.1-0.4-1.7-0.4c-0.1-0.2-0.4-0.3-0.7-0.2c-0.3-0.5-0.8-0.7-1.2-0.9c0-0.2-0.1-0.4-0.4-0.4c-0.1-0.5-0.4-1-0.9-1.2
	c0.1-0.3,0-0.5-0.3-0.6c-0.1-0.5-0.2-1.2-0.7-1.5c0.1-0.3,0.1-0.4-0.2-0.6c0.1-0.7-0.4-1.1-1.1-1.2c0-0.2,0-0.4-0.2-0.6
	c0.1-0.6,0.5-1,1.1-1.1c-0.7-0.1-1.1,0.4-1.3,1c0.1,0.3,0.2,0.5,0.3,0.8c0.5,0.2,1,0.4,1,1c0.8,2,1.8,4.2,3.8,5.3
	C54.8,32.9,60.8,33.3,59.1,30.5z M51.9,43.4c0.2-1.7-2.1-7.2-4-4.7c-0.1,0.6,0.3,1,0.6,1.4h0v0c1.2,1.1,1.5,2.8,1.3,4.3
	c0.2,0.2,0.3,0.4,0.5,0.6C51.5,45.6,52,44.6,51.9,43.4z M41.7,41.7c-1.7-2.8-4.6,3.6-4,5.2c-0.1,1.2,1.4,1.6,2,0.7
	c0.2-0.6-0.2-1.3,0.1-2c0,0,0,0,0,0c0.1-1.3,1.1-2.3,1.8-3.3C41.8,42.1,41.8,41.9,41.7,41.7z M29.8,28.5c0,0.6,0.7-0.2,0.8-0.4
	C30.3,28.1,30.3,28.6,29.8,28.5z M29.8,28.5c0,0.6,0.7-0.2,0.8-0.4C30.3,28.1,30.3,28.6,29.8,28.5z M41.7,41.7
	c-1.7-2.8-4.6,3.6-4,5.2c-0.1,1.2,1.4,1.6,2,0.7c0.2-0.6-0.2-1.3,0.1-2c0,0,0,0,0,0c0.1-1.3,1.1-2.3,1.8-3.3
	C41.8,42.1,41.8,41.9,41.7,41.7z M51.9,43.4c0.2-1.7-2.1-7.2-4-4.7c0,0,0,0,0,0c0,0,0.1,0,0.1,0c0.3-0.4,0.8-0.4,1.2-0.5
	c0.3,0.1,0.5,0.4,0.8,0.4c0,0.3,0.1,0.5,0.4,0.5c0.2,0.5,0.4,1,0.9,1.3c-0.1,0.2,0,0.3,0.2,0.4c0,0,0,0,0,0c0,0.6,0.2,1.2,0.5,1.7
	c0,0,0.1,0,0.1,0c-0.3,0.4-0.3,0.9-0.1,1.3c-0.2,1-0.5,1.2-1.5,1.1c0,0,0,0.1,0,0.1C51.5,45.6,52,44.6,51.9,43.4z M59.1,30.5
	c0,0-0.1,0-0.1,0c1,2-1.4,1.6-2.5,2.2c-0.2-0.2-0.4-0.1-0.7,0c-0.4-0.4-1.1-0.4-1.7-0.4c-0.1-0.2-0.4-0.3-0.7-0.2
	c-0.3-0.5-0.8-0.7-1.2-0.9c0-0.2-0.1-0.4-0.4-0.4c-0.1-0.5-0.4-1-0.9-1.2c0.1-0.3,0-0.5-0.3-0.6c-0.1-0.5-0.2-1.2-0.7-1.5
	c0.1-0.3,0.1-0.4-0.2-0.6c0.1-0.7-0.4-1.1-1.1-1.2c0-0.2,0-0.4-0.2-0.6c0.1-0.6,0.5-1,1.1-1.1c-0.7-0.1-1.1,0.4-1.3,1
	c0.1,0.3,0.2,0.5,0.3,0.8c0.5,0.2,1,0.4,1,1c0.8,2,1.8,4.2,3.8,5.3C54.8,32.9,60.8,33.3,59.1,30.5z M41.7,41.7
	c-1.7-2.8-4.6,3.6-4,5.2c-0.1,1.2,1.4,1.6,2,0.7c0.2-0.6-0.2-1.3,0.1-2c0,0,0,0,0,0c0.1-1.3,1.1-2.3,1.8-3.3
	C41.8,42.1,41.8,41.9,41.7,41.7z M29.8,28.5c0,0.6,0.7-0.2,0.8-0.4C30.3,28.1,30.3,28.6,29.8,28.5z M29.8,28.5
	c0,0.6,0.7-0.2,0.8-0.4C30.3,28.1,30.3,28.6,29.8,28.5z M41.7,41.7c-1.4-2.4-3.5,1.9-3.9,3.2c0.2,0.4,0.3,0.8-0.2,1.1
	c-0.2,1.3,0.8,3.1,2.1,1.6c0.2-0.6-0.2-1.3,0.1-2c0,0,0,0,0,0c0.1-1.3,1.1-2.3,1.8-3.3C41.8,42.1,41.8,41.9,41.7,41.7z M51.9,43.4
	c0.2-1.7-2.1-7.2-4-4.7c0,0,0,0,0,0c0,0,0.1,0,0.1,0c0.3-0.4,0.8-0.4,1.2-0.5c0.3,0.1,0.5,0.4,0.8,0.4c0,0.3,0.1,0.5,0.4,0.5
	c0.2,0.5,0.4,1,0.9,1.3c-0.1,0.2,0,0.3,0.2,0.4c0,0,0,0,0,0c0,0.6,0.2,1.2,0.5,1.7c0,0,0.1,0,0.1,0c-0.3,0.4-0.3,0.9-0.1,1.3
	c-0.2,1-0.5,1.2-1.5,1.1c0,0,0,0.1,0,0.1C51.5,45.6,52,44.6,51.9,43.4z M59.1,30.5c0,0-0.1,0-0.1,0c1,2-1.4,1.6-2.5,2.2
	c-0.2-0.2-0.4-0.1-0.7,0c-0.4-0.4-1.1-0.4-1.7-0.4c-0.1-0.2-0.4-0.3-0.7-0.2c-0.3-0.5-0.8-0.7-1.2-0.9c0-0.2-0.1-0.4-0.4-0.4
	c-0.1-0.5-0.4-1-0.9-1.2c0.1-0.3,0-0.5-0.3-0.6c-0.1-0.5-0.2-1.2-0.7-1.5c0.1-0.3,0.1-0.4-0.2-0.6c0.1-0.7-0.4-1.1-1.1-1.2
	c0-0.2,0-0.4-0.2-0.6c0.1-0.6,0.5-1,1.1-1.1c-0.7-0.1-1.1,0.4-1.3,1c0.1,0.3,0.2,0.5,0.3,0.8c0.5,0.2,1,0.4,1,1
	c0.8,2,1.8,4.2,3.8,5.3C54.8,32.9,60.8,33.3,59.1,30.5z M29.8,28.5c0,0.6,0.7-0.2,0.8-0.4C30.3,28.1,30.3,28.6,29.8,28.5z
	 M29.8,28.5c0,0.6,0.7-0.2,0.8-0.4C30.3,28.1,30.3,28.6,29.8,28.5z M51.9,43.4c0.2-1.7-2.1-7.2-4-4.7c0,0,0,0,0,0c0,0,0.1,0,0.1,0
	c0.3-0.4,0.8-0.4,1.2-0.5c0.3,0.1,0.5,0.4,0.8,0.4c0,0.3,0.1,0.5,0.4,0.5c0.2,0.5,0.4,1,0.9,1.3c-0.1,0.2,0,0.3,0.2,0.4c0,0,0,0,0,0
	c0,0.6,0.2,1.2,0.5,1.7c0,0,0.1,0,0.1,0c-0.3,0.4-0.3,0.9-0.1,1.3c-0.2,1-0.5,1.2-1.5,1.1c0,0,0,0.1,0,0.1
	C51.5,45.6,52,44.6,51.9,43.4z M29.8,28.5c0,0.6,0.7-0.2,0.8-0.4C30.3,28.1,30.3,28.6,29.8,28.5z M29.8,28.5c0,0.6,0.7-0.2,0.8-0.4
	C30.3,28.1,30.3,28.6,29.8,28.5z M29.8,28.5c0,0.6,0.7-0.2,0.8-0.4C30.3,28.1,30.3,28.6,29.8,28.5z M29.8,28.5
	c0,0.6,0.7-0.2,0.8-0.4C30.3,28.1,30.3,28.6,29.8,28.5z M29.8,28.5c0,0.6,0.7-0.2,0.8-0.4C30.3,28.1,30.3,28.6,29.8,28.5z
	 M29.8,28.5c0,0.6,0.7-0.2,0.8-0.4C30.3,28.1,30.3,28.6,29.8,28.5z M29.8,28.5c0,0.6,0.7-0.2,0.8-0.4C30.3,28.1,30.3,28.6,29.8,28.5
	z M29.8,28.5c0,0.6,0.7-0.2,0.8-0.4C30.3,28.1,30.3,28.6,29.8,28.5z M29.8,28.5c0,0.6,0.7-0.2,0.8-0.4
	C30.3,28.1,30.3,28.6,29.8,28.5z"/>
<path class="st0" d="M66.4,12.9c-1.4,0.8-3.9,5.4-5.5,3.7c-0.6-1.6,3.2-4.1,4.3-5.3C66.1,10.8,66.8,12.1,66.4,12.9z"/>
<path class="st0" d="M29.5,49.7c-1.6,0.9-3.4,5.1-5.4,3.7c-1.1-1.1,3.4-4.5,4.4-5.3C29.4,47.7,30.2,49.2,29.5,49.7z"/>
<path class="st0" d="M73.6,33.6c-0.2,0-0.5,0-0.7,0c-0.7,0.4-1.4,0.2-2.2,0.2c-0.9-0.1-1.8,0.2-2.6-0.3c-0.7-0.8-0.2-2.1,1-2
	c0.3-0.1,0.5-0.2,0.8,0c1,0.1,2.1-0.2,3,0c0.6,0.1,1.3-0.1,1.8,0.3C75.4,32.5,74.7,33.7,73.6,33.6z"/>
<path class="st0" d="M46.3,60.1c0,1.1-0.1,2.2-1.3,2.1c-0.9-0.1-0.7-1.4-0.8-2.1c-0.2-0.9,0.1-2,0-3c-0.2-0.3-0.1-0.5,0-0.8
	c-0.1-1.2,1.2-1.8,2-1c0.6,0.8,0.2,1.7,0.4,2.6C46.5,58.7,46.7,59.5,46.3,60.1z"/>
<path class="st0" d="M62.4,51.2c-0.5-0.6-1-1-1.5-1.7c0-0.2,0-0.5,0-0.7c0.2-0.2,0.4-0.4,0.6-0.6c0.2,0,0.5,0,0.7,0
	c1.5,1.2,2.7,2.6,4,3.9c0.2,0.1,0.4,0.3,0.3,0.6c0.1,0.9-1.3,1.7-1.8,0.9C64,52.7,63.2,51.9,62.4,51.2z"/>
<path class="st0" d="M16.7,33.6c-0.2-0.1-0.4-0.1-0.6-0.2c-2.3-2.7,4.4-2.1,5.8-2.1c0.9,0.3,1.1,0.6,0.9,1.4
	C21.7,34.6,18.6,33.2,16.7,33.6z"/>
<path class="st0" d="M46.2,3.4c0,1.8,1,5.7-0.7,6.7c-0.7,0.2-1,0-1.4-0.9C44.1,7.8,43.4,1,46.2,3.4z"/>
<path class="st0" d="M25.8,11.6c0.7,1.3,4.8,3.6,3.5,5c-1.5,1.3-3.7-2.8-5-3.5C23.4,12.1,24.8,10.6,25.8,11.6z"/>
<path class="st0" d="M51.9,44.1c-0.3,1.1-0.6,1.3-1.6,1c0,0,0-0.1-0.1-0.1c0,0,0,0,0,0c1.3,0.2,1.4-0.6,1.7-1.6
	C51.9,43.7,51.9,43.9,51.9,44.1z"/>
<path class="st0" d="M55.4,45.2c0,0.1,0,0.2-0.1,0.3C55.3,45.3,55.3,45.2,55.4,45.2C55.3,45.2,55.4,45.2,55.4,45.2z"/>
<path class="st0" d="M41.5,41.2C41.4,41.2,41.4,41.2,41.5,41.2c-2.3-0.3-2.6,2.6-3.6,3.9C38.3,43.6,39.5,40.2,41.5,41.2z"/>
<path class="st0" d="M39.7,47.6c-1.3,1.6-2.3-0.4-2.1-1.7c0.3,1,0.5,3,1.9,1.6c0-0.3,0.1-0.6,0.2-0.9C39.8,46.9,39.8,47.2,39.7,47.6
	z"/>
<path class="st0" d="M53.3,29.3C53.3,29.3,53.2,29.3,53.3,29.3c-0.6-0.3-1-0.8-0.9-1.5C52.6,28.4,52.9,28.9,53.3,29.3z"/>
<path class="st0" d="M49.6,24c-0.7,0.1-1,0.6-1.2,1.2c0-0.1-0.1-0.1-0.1-0.2C48.4,24.4,48.9,23.9,49.6,24z"/>
<path class="st0" d="M53.4,32.1C53.4,32.1,53.4,32.1,53.4,32.1c-0.5-0.3-0.9-0.6-1.3-1C52.6,31.3,53.1,31.6,53.4,32.1z"/>
<path class="st0" d="M52.2,27.4C52.2,27.4,52.1,27.4,52.2,27.4c-0.6-0.4-0.7-1.1-0.7-1.7C51.7,26.3,51.8,26.9,52.2,27.4
	C52.2,27.4,52.2,27.4,52.2,27.4z"/>
<path class="st0" d="M30.6,28.1c0,0.2-0.8,1-0.8,0.4C30.3,28.6,30.3,28.1,30.6,28.1z"/>
<path class="st0" d="M55.2,30.5C55.2,30.5,55.1,30.6,55.2,30.5c-0.7,0.1-1.3-0.1-1.6-0.7c0,0,0-0.1,0-0.1c0,0,0.1,0,0.1,0
	C54.1,30.1,54.6,30.4,55.2,30.5C55.2,30.5,55.2,30.5,55.2,30.5z"/>
<path class="st0" d="M58.4,32.4c-0.7,0.2-1.3,0.3-2,0.3c1.2-0.8,3.4,0,2.6-2.3c0,0,0.1,0,0.1,0C59.7,31.4,59.5,32.1,58.4,32.4z"/>
<path class="st0" d="M51.8,30.8C51.8,30.8,51.8,30.8,51.8,30.8c-0.3-0.3-0.6-0.8-0.9-1.3C51.4,29.7,51.7,30.2,51.8,30.8z"/>
<path class="st0" d="M49.9,38.7c-0.5-0.1-0.8-0.5-1.2-0.6C49.2,37.9,49.6,38.3,49.9,38.7z"/>
<path class="st0" d="M55.8,32.7c-0.6-0.1-1.3-0.2-1.9-0.4C54.5,32.3,55.3,32.3,55.8,32.7C55.8,32.7,55.8,32.7,55.8,32.7z"/>
<path class="st0" d="M50.7,28.9C50.7,28.9,50.7,28.9,50.7,28.9c0,0.1,0,0.1,0,0.1c-0.3-0.5-0.5-1.1-0.7-1.6
	C50.4,27.7,50.5,28.4,50.7,28.9z"/>
<path class="st0" d="M58.4,30.3c-0.7,0.4-1.9,0.8-2.7,0.3c0,0,0,0,0,0C56.7,30.8,57.5,30.4,58.4,30.3z"/>
<path class="st0" d="M41.7,42.3c-0.8,1-1.8,2-1.8,3.3c0,0,0,0,0,0c-0.3-1.3,1-2.4,1.7-3.3c0-0.2,0.1-0.4,0.2-0.6
	C41.8,41.9,41.8,42.1,41.7,42.3z"/>
<path class="st0" d="M50,44.5c0,0.1,0,0.1,0,0.2c0-0.1-0.1-0.1-0.1-0.2c0-0.7,0.2-1.3-0.1-2C50.3,43,50,43.9,50,44.5z"/>
<path class="st0" d="M49.8,26.8c0,0.1,0,0.1,0,0.2c0,0-0.1-0.1-0.1-0.1c0-0.7-0.5-0.8-1-1c0,0,0,0,0-0.1c0,0,0,0,0.1,0
	C49.3,25.8,49.8,26.1,49.8,26.8z"/>
<path class="st0" d="M51.9,42.6L51.9,42.6C51.9,42.6,51.8,42.6,51.9,42.6c-0.4-0.5-0.6-1.1-0.6-1.7c0,0,0,0,0,0c0,0,0,0,0,0
	C51.5,41.4,51.7,42,51.9,42.6z"/>
<path class="st0" d="M49.6,41.8c0,0,0,0.1-0.1,0.1c-0.2-0.5-0.4-1-0.8-1.4C49.3,40.8,49.5,41.3,49.6,41.8z"/>
<path class="st0" d="M55.3,46.6c0-0.4,0-0.9-0.1-1.3C55.5,45.7,55.4,46.2,55.3,46.6z"/>
<path class="st0" d="M30.6,28.1c0,0.2-0.8,1-0.8,0.4C30.3,28.6,30.3,28.1,30.6,28.1z"/>
<path class="st0" d="M49.3,38.1c-0.4,0.3-1,0.2-1.4,0.6c0,0-0.1,0-0.1,0c0,0,0,0,0,0C48.2,38.1,48.7,38,49.3,38.1z"/>
<path class="st0" d="M54.2,32.4c-0.3-0.1-0.5-0.2-0.8-0.3C53.7,32,54,32.1,54.2,32.4z"/>
<path class="st0" d="M51.2,40.4C51.2,40.4,51.1,40.4,51.2,40.4c-0.5-0.3-0.8-0.8-0.9-1.4C50.6,39.5,50.9,39.9,51.2,40.4z"/>
<path class="st0" d="M52.5,28c-0.3-0.1-0.4-0.3-0.3-0.6C52.2,27.6,52.3,27.8,52.5,28z"/>
<path class="st0" d="M53.7,29.7c-0.3,0-0.5-0.1-0.4-0.4C53.4,29.5,53.5,29.6,53.7,29.7z"/>
<path class="st0" d="M52.2,31.1C52.2,31.2,52.2,31.2,52.2,31.1c-0.2-0.1-0.3-0.2-0.4-0.4C52,30.7,52.2,30.9,52.2,31.1z"/>
<path class="st0" d="M51.6,25.9c-0.3,0-0.4-0.3-0.4-0.6c0,0,0-0.1,0.1-0.1C51.3,25.4,51.4,25.7,51.6,25.9z"/>
<path class="st0" d="M48.5,40.2L48.5,40.2L48.5,40.2c-0.3-0.4-0.8-0.8-0.6-1.4C48.1,39.2,48.3,39.7,48.5,40.2z"/>
<path class="st0" d="M55.8,30.6c-0.2,0.2-0.5,0.1-0.6-0.1C55.3,30.6,55.5,30.6,55.8,30.6C55.8,30.6,55.8,30.6,55.8,30.6z"/>
<path class="st0" d="M34.4,37.4c-0.4,0.1-0.7,0.1-1.1,0H34.4z"/>
<path class="st0" d="M39.8,46.6c0,0.3,0.1,0.7,0,1c-0.3-0.6-0.4-1.5,0.1-2C39.7,45.9,39.7,46.2,39.8,46.6z"/>
<path class="st0" d="M51,29.5C51,29.5,50.9,29.6,51,29.5c-0.1-0.1-0.3-0.4-0.4-0.6C50.9,29,51.1,29.2,51,29.5z"/>
<path class="st0" d="M51.4,23.6c-0.2-0.3-0.2-0.7,0-1C51.3,22.9,51.3,23.2,51.4,23.6z"/>
<path class="st0" d="M51.3,25.2c-0.1,0-0.3,0-0.3-0.1c-0.4-0.6-1.2-0.8-1.8-1.1C50.1,24,50.8,24.5,51.3,25.2z"/>
<path class="st0" d="M51.9,44.1c-0.3-0.5-0.4-1,0-1.5C51.9,43.1,51.9,43.6,51.9,44.1z"/>
<path class="st0" d="M50.3,45.1c-0.2-0.2-0.3-0.4-0.5-0.6C50.1,44.6,50.3,44.8,50.3,45.1z"/>
<path class="st0" d="M49.9,27.4C49.9,27.5,49.9,27.5,49.9,27.4c-0.1-0.2-0.1-0.4-0.3-0.6C49.9,26.9,50.1,27.1,49.9,27.4z"/>
<path class="st0" d="M49.8,42.6C49.8,42.6,49.8,42.6,49.8,42.6c0-0.3-0.1-0.5-0.3-0.7C49.8,42,50,42.2,49.8,42.6z"/>
<path class="st0" d="M41.7,42.3c-0.3-0.3-0.3-0.8-0.3-1.2C41.7,41.4,41.8,41.9,41.7,42.3z"/>
<path class="st0" d="M51.4,40.8c-0.2-0.1-0.3-0.3-0.2-0.5C51.2,40.5,51.3,40.7,51.4,40.8z"/>
<path class="st0" d="M50.4,39.2c-0.4,0-0.5-0.3-0.5-0.6C50,38.8,50.2,39,50.4,39.2z"/>
<path class="st0" d="M56.5,32.7h-0.8c0,0,0,0,0,0C56,32.5,56.3,32.5,56.5,32.7z"/>
<path class="st0" d="M48.9,40.6C48.9,40.6,48.9,40.6,48.9,40.6c-0.1-0.1-0.2-0.3-0.4-0.4v0C48.7,40.2,48.9,40.3,48.9,40.6z"/>
<path class="st0" d="M37.8,45.9C37.7,45.9,37.7,45.9,37.8,45.9c0-0.3,0-0.7,0.1-1C38,45.2,38.1,45.6,37.8,45.9z"/>
<path class="st0" d="M48.7,25.7c0,0,0,0.1,0,0.1c-0.1-0.3-0.2-0.5-0.3-0.8C48.6,25.1,48.7,25.4,48.7,25.7z"/>
<path class="st0" d="M59.1,30.5c-0.3,0.1-0.7,0.1-0.9-0.2C58.5,30.3,58.8,30.3,59.1,30.5z"/>
<path class="st0" d="M55.3,46.6c0-0.5-0.1-1,0-1.5C55.5,45.6,55.6,46.1,55.3,46.6z"/>
<path class="st0" d="M34.4,37.4c-0.4,0.2-0.7,0.2-1.1,0H34.4z"/>
<path class="st0" d="M51.4,23.6c-0.2-0.3-0.2-0.7,0-1L51.4,23.6z"/>
<path class="st0" d="M51.9,44.1c-0.3,1.1-0.6,1.3-1.6,1c-0.2-0.2-0.3-0.4-0.5-0.6c0.2-1.5-0.2-3.2-1.3-4.3v0h0
	c-0.3-0.4-0.8-0.8-0.6-1.4C50,36,52.3,42.4,51.9,44.1z"/>
<path class="st0" d="M41.7,42.3c-1.1,1.2-2.1,2.6-2,4.3c0.2,0.8-0.3,1.8-1.3,1.5c-0.9-0.3-0.7-1.3-0.8-2.1
	C37.4,44.2,41.2,38.2,41.7,42.3z"/>
<path class="st0" d="M58.4,32.4c-4.3,1.5-7.6-1.6-8.7-5.5c0-0.7-0.5-0.8-1-1c-0.1-0.3-0.2-0.5-0.3-0.8c0.3-1.7,2.3-1,2.9,0.1
	c0.3,0.7,0.5,1.5,0.9,2.1c0.3,0.9,0.8,1.8,1.5,2.4c0.4,0.4,0.9,0.7,1.5,0.8c0.2,0.1,0.4,0.2,0.6,0.1c1.1,0.3,2.3-0.6,3.3-0.1
	C59.7,31.4,59.5,32.1,58.4,32.4z"/>
</svg>
