<?xml version="1.0" encoding="utf-8"?>
<!-- Generator: Adobe Illustrator 26.5.0, SVG Export Plug-In . SVG Version: 6.00 Build 0)  -->
<svg version="1.1" id="Capa_1" xmlns="http://www.w3.org/2000/svg" xmlns:xlink="http://www.w3.org/1999/xlink" x="0px" y="0px"
	 viewBox="0 0 90 65" style="enable-background:new 0 0 90 65;" xml:space="preserve">
<style type="text/css">
	.st0{fill:#E4291C;}
	.st1{fill:#FEFEFE;}
	.st2{fill:#FDFDFD;}
	.st3{fill:#FCFCFC;}
	.st4{fill:#F4F4F4;}
</style>
<path class="st0" d="M35.3,8.1c0.1-1.7,0.4-3.2,1.1-4.6c0.6-1.3,1.5-2,2.9-1.7c1.4,0.3,2,1.3,1.9,2.7c-0.1,1.5,0.1,2.9,0.6,4.3
	c0.2,0.7,0.5,1,1.4,0.7c1.9-0.7,3.5-0.1,4.9,1.2c0.4,0.4,0.9,0.7,1.5,0.8c5.2,1,8.8,4,10.6,9c0.2,0.5,0.2,1,1,0.9
	c3.9-0.3,6,2.2,5.4,6c-0.5,3.1-2.8,5.4-5.9,5.7c-0.8,0.1-1.1,0.4-1.4,1c-2.1,4.5-5.6,7.3-10.3,8.8c-0.4,0.1-1.2-0.1-1.1,0.8
	c0.1,0.7,0.6,1.2,1.3,1.2c1.4,0.1,2.8,0,4.2,0c4.5,0,7.3,3.1,6.9,7.6c-0.1,0.9-0.1,1.8-0.2,2.8c1.9-0.9,3.3-2.2,4.4-3.7
	c2.5-3.4,3.6-7.3,3.7-11.4c0.2-6.6,0.1-13.2,0.1-19.8c0-0.8-0.2-1.1-1.1-1.1c-1.8-0.1-2.5-1.7-1.4-3.2c1.3-1.7,2.6-3.3,3.9-4.9
	c1-1.2,2.1-1.2,3.1,0c1.4,1.6,2.7,3.3,4,5c1,1.3,0.3,3-1.3,3.1c-1.3,0-1.3,0.7-1.3,1.6c0,6,0.1,12,0,18c-0.1,5.5-1.3,10.7-4.4,15.4
	c-3.8,5.7-9.2,8.7-16.1,8.8c-11.5,0.1-23,0-34.5,0c-2.2,0-3.4-1.1-3.4-3c0-1.9,1.2-3,3.4-3c1.3,0,2.6-0.1,3.9,0
	c1.5,0.2,1.7-0.5,1.5-1.7c-0.2-1.1-0.3-2.1-0.4-3.2C24,48.2,26.9,45.1,31,45c1.4,0,2.8,0,4.2,0c0.9,0,1.5-0.4,1.6-1.3
	c0.1-1-0.8-0.7-1.3-0.8c-4.6-1.4-8-4.3-10.1-8.6c-0.4-0.8-0.8-1.1-1.6-1.2c-4-0.4-6.7-4.8-5.5-8.6c0.7-2.2,2.5-3.4,4.8-3.2
	c0.9,0.1,1.2,0,1.5-0.9c1.1-3.2,3.1-5.7,6.1-7.4c0.8-0.5,0.9-0.8,0.4-1.6c-0.6-0.9-0.9-1.9-1.1-3c-0.1-0.8,0-1.5,0.7-2
	c0.7-0.5,1.5-0.5,2.3-0.1C33.6,7,34.3,7.5,35.3,8.1z"/>
<path class="st1" d="M42.8,41.6c-2.6,0-4.6,0-6.5-0.5c-6-1.6-10.2-6.9-10.5-13.1c-0.1-2.2-0.2-4.5,0.6-6.7c1.5-4.3,4.6-6.8,9.1-7.7
	c0.9-0.2,1.6,0,2.1,0.9c1.9,3.8,6.4,3.5,8.7,1.1c0,0,0.1-0.1,0.1-0.1c2.7-2.4,3.4-2.5,6.6-0.7c3.3,1.8,5.4,4.6,5.8,8.4
	c0.8,6.3-0.4,11.9-5.9,15.8C49.6,41.2,46,41.7,42.8,41.6z"/>
<path class="st1" d="M42.2,43.6c0.4,0,0.8,0,1.1,0c1.4-0.2,2.5-0.2,2.9,1.6c0.3,1.3,1.6,1.8,2.9,1.8c1.4,0,2.9,0,4.3,0
	c2.9,0.1,4.8,2.1,4.7,5c0,0.9-0.3,1.8-0.3,2.7c0.2,1.8-1,2.3-2.3,2.2c-1.1-0.1-2,0.2-3.1,0.2c-6.9,0-13.8,0.1-20.8,0
	c-1.3,0-2.6,0.1-3.9,0.1c-0.8,0-1.2-0.3-1.2-1.1c-0.1-1.4-0.3-2.8-0.4-4.2c-0.1-2.8,1.8-4.8,4.6-4.9c1.5,0,3,0,4.5,0
	c1.5,0,2.7-0.7,3.1-2.1c0.4-1.3,1-1.5,2.1-1.3C41.2,43.6,41.7,43.6,42.2,43.6C42.2,43.6,42.2,43.6,42.2,43.6z"/>
<path class="st2" d="M67.4,17.3c1.4-1.7,2.6-3.3,3.9-4.9c1.3,1.6,2.5,3.1,3.7,4.7c-0.3,0.4-0.7,0.3-1,0.3c-1.3-0.1-1.8,0.5-1.8,1.8
	c0,6.1,0,12.2,0,18.4c0,4.4-0.6,8.8-2.5,12.8c-3.3,7.1-8.8,10.8-16.7,10.8c-10.9,0-21.9,0-32.8,0c-0.4,0-0.8,0-1.1,0
	c-0.7,0-1.2-0.3-1.1-1c0-0.7,0.4-0.9,1.1-0.9c0.4,0,0.9,0,1.3,0c10.5,0,20.9-0.2,31.4,0c12.3,0.2,16.8-7.9,18.1-15.7
	c0.7-4.2,0.4-8.5,0.4-12.7c0-3.6,0-7.2,0-10.8C70.3,17.4,70.3,17.4,67.4,17.3z"/>
<path class="st3" d="M37.3,8.2c0.1-1.3,0.3-2.5,0.8-3.7c0.1-0.3,0.2-0.7,0.6-0.6c0.5,0.1,0.5,0.5,0.4,0.9c-0.1,2.3,0.4,4.4,1.4,6.3
	c0.6,1.1,1.3,1.7,2.5,0.7c0.4-0.4,1-0.5,1.5-0.4c0.7,0,1.5,0.2,1.8,0.8c0.3,0.7-0.6,0.9-1,1.2c-0.6,0.6-1.2,1.1-1.9,1.5
	c-1.6,0.9-3.1,0.4-4.2-1.1C38.3,12.2,37.3,10.4,37.3,8.2z"/>
<path class="st3" d="M60.4,31.2c0.6-2.3,0.5-4.5,0.4-6.7c0-0.8,0.3-1,1-1.1c1.5-0.1,2.6,0.9,2.8,2.5C64.9,28.3,63.2,30.6,60.4,31.2z
	"/>
<path class="st3" d="M24.2,31.1c-2.7-0.4-4.7-2.9-4.2-5.4c0.2-0.9,0.5-1.6,1.3-2.1c1.5-0.8,2.4-0.2,2.4,1.4
	C23.7,27.1,23.7,29.1,24.2,31.1z"/>
<path class="st4" d="M31.9,8.4c1,0.6,1.9,1.1,2.8,1.7c0.4,0.3,1,0.4,1,1.1c0,0.4-0.3,0.4-0.6,0.4c-0.7-0.1-1.4,0.8-2-0.2
	C32.6,10.5,32,9.6,31.9,8.4z"/>
<path class="st0" d="M42.3,36.6c-1.4-0.1-3-0.2-4.4-1.1c-0.7-0.4-1.5-1-0.9-1.9c0.6-0.9,1.2-0.3,1.9,0.2c1.6,1.1,5.6,1.1,7.2-0.1
	c0.6-0.5,1.2-0.9,1.8-0.1c0.5,0.7,0,1.3-0.6,1.8C46.3,36.1,44.4,36.6,42.3,36.6z"/>
<path class="st0" d="M36.8,25.5c0.6,0.1,1,0.4,1,1c0,0.6-0.4,1-1,1c-0.6,0-1-0.4-1-1C35.9,25.9,36.3,25.6,36.8,25.5z"/>
<path class="st0" d="M48.9,26.7c-0.1,0.6-0.5,0.9-1.1,0.8c-0.6-0.1-1-0.5-0.9-1.1c0.1-0.6,0.5-0.9,1-0.8C48.6,25.6,49,26,48.9,26.7z
	"/>
<path class="st0" d="M30.7,52.5c0.6,0.5,0.4,1,0.2,1.5c-0.1,0.2-0.4,0.2-0.5,0C30.1,53.5,30.2,53,30.7,52.5z"/>
<path class="st0" d="M53.8,52.5c0.5,0.1,0.5,0.5,0.5,0.9c0,0.3,0.1,0.7-0.3,0.7c-0.5,0-0.4-0.5-0.5-0.8C53.4,53,53.5,52.7,53.8,52.5
	z"/>
</svg>
