<?xml version="1.0" encoding="UTF-8"?>
<svg id="Capa_1" data-name="Capa 1" xmlns="http://www.w3.org/2000/svg" viewBox="0 0 1121.85 395.08">
  <defs>
    <style>
      .cls-1, .cls-2 {
        fill: #e4291c;
      }

      .cls-2 {
        font-family: ArialRoundedMTBold, 'Arial Rounded MT Bold';
        font-size: 30.7px;
      }

      .cls-3 {
        fill: #e42b1f;
      }

      .cls-4 {
        fill: none;
        stroke: #e4291c;
        stroke-miterlimit: 10;
        stroke-width: 4.25px;
      }
    </style>
  </defs>
  <path class="cls-1" d="M838.48,192.99c.01-1.9-.33-3.63-1.5-5.16-3.4-4.47-3.99-9.55-3.96-15.05,.07-10.31,.81-20.66-.48-30.94-.81-6.4-3.86-9.49-9.53-10.51-1.57-.29-3.83,.11-4.24-1.83-.47-2.2,2.19-2.02,3.38-3.01,.74-.62,1.76-.9,2.65-1.36,8.49-4.31,13.92-10.58,13.48-20.73-.81-18.45-2.78-36.82-3.68-55.27-.23-4.76-1.64-11.04-6.95-13.55-5.04-2.38-10.51-3.97-16.36-3.91-15.99,.17-31.99,.06-47.98,.06-16.83,0-33.65,.06-50.48-.05-3.71-.02-5.54,1.08-5.47,5.12,.17,9.5,.08,18.99,.04,28.49-.02,2.27,.27,4.54,2.21,5.81,3.49,2.29,3.58,5.57,3.57,9.19-.06,30.98-.11,61.96,.04,92.94,.02,5.16-.66,9.87-3.57,14.2-1.51,2.25-2.24,4.81-2.23,7.56,.01,9.16,.08,18.32-.04,27.48-.05,3.8,1.37,5.31,5.31,5.28,18.49-.14,36.98-.15,55.48,.01,3.82,.03,4.91-1.47,4.85-5.01-.14-8.66-.18-17.33,.02-25.98,.08-3.48-.73-6.09-3.78-8.03-3.12-1.99-4.6-4.72-4.41-8.77,.38-7.81,.19-15.65,.07-23.48-.04-2.87,.75-4.15,3.91-4.26,9.08-.3,11.11,1.12,14.04,9.92,1.03,3.08,1.39,6.12,1.38,9.3-.03,16.99,.11,33.98-.09,50.97-.05,4.19,1.32,5.41,5.44,5.35,14.65-.21,29.32-.18,43.98-.02,3.63,.05,5.03-1,4.96-4.78-.21-9.99-.1-19.99-.06-29.98Zm-56.2-87.41c-.03,5.54-2.24,7.83-7.76,8.04-1.66,.06-3.32-.21-4.99-.21-3.29-.01-4.77-1.42-4.62-4.89,.21-4.99,.05-9.98,.05-14.97s.13-9.99-.04-14.98c-.11-3.29,1.08-4.73,4.46-5.16,12.02-1.51,12.92-.83,12.92,11.21,0,6.99,.02,13.97-.02,20.96Z"/>
  <path class="cls-1" d="M252.03,31.66c-15.99,.18-31.99,.07-47.98,.07-16.83,0-33.66,.08-50.49-.07-3.79-.03-5.4,1.02-5.31,5.08,.23,9.65,.09,19.32,.06,28.98-.01,2.25,.22,4.36,2.3,5.73,3.18,2.12,3.54,5.22,3.53,8.75-.09,31.15-.1,62.3,.01,93.45,0,4.47-.57,8.52-3.12,12.31-1.76,2.62-2.82,5.53-2.76,8.89,.16,9.16,.21,18.33-.02,27.49-.1,4.15,1.39,5.46,5.51,5.42,18.16-.17,36.33-.21,54.49,.02,4.63,.06,5.75-1.87,5.66-5.96-.16-7.82-.24-15.66,.03-23.48,.16-4.4-1.01-7.76-4.72-10.26-2.08-1.41-3.85-3.11-3.82-6.03,.07-8.67,.06-17.33,0-25.99-.02-2.5,1.03-3.52,3.51-3.78,8.43-.9,11.47,1,14.31,8.91,1.21,3.36,1.61,6.76,1.61,10.29-.02,16.99,.07,33.98-.07,50.97-.03,3.82,1.15,5.35,5.15,5.3,14.82-.16,29.65-.15,44.48,0,3.54,.03,4.7-1.32,4.65-4.69-.13-8.16-.16-16.33,.01-24.49,.11-5.25-.1-10.25-3.66-14.6-1.66-2.03-1.34-4.72-1.36-7.23-.11-11.81,.54-23.65-1.21-35.41-.81-5.49-3.65-8.77-8.88-9.93-1.69-.37-4.21,.14-4.51-2.18-.26-2.04,2.41-1.85,3.6-2.9,.72-.63,1.78-.86,2.66-1.34,7.95-4.27,13.66-9.97,13.03-19.9-.2-2.98-.29-6-.09-8.97,.99-14.83-.01-24.83-.01-38.83,0-6.98,1-12-3-19-1.35-2.36-3.39-5.77-10-6l-13.59-.62Zm-35.88,82c-1.95,.22-3.96-.2-5.95-.22-3.54-.04-5.01-1.65-4.85-5.29,.23-4.97,.06-9.96,.06-14.94,.01-4.98,.1-9.97-.03-14.95-.08-3.12,1.32-4.36,4.34-4.82,12.07-1.83,13.14-.97,13.14,11.33,0,7.14-.18,14.29,.05,21.42,.16,4.92-2.43,6.98-6.76,7.47Z"/>
  <path class="cls-1" d="M409.62,35.28c-5.13-3.34-11.73-6.25-18.22-6.61-21.86-1.24-50.4-3.83-71.78,1.61-4.07,1.04-7.13,2.14-10,5-4.34,4.34-7.23,9.5-10,15-3.71,7.4-3,17.21-3.03,25.7-.14,44.63-.37,89.27-.15,133.9,.03,5.87,2.45,12.75,7.7,15.37,5.87,2.93,12.81,4.67,19.69,4.87,20.15,.58,40.31,.77,60.44,1.56,7.89,.3,15.04-2.42,22.51-3.86,1.03-.2,2.35-1.05,2.78-1.95,2.64-5.65,6.31-10.78,6.49-17.53,.71-26.14,.37-52.29,.49-78.44,.18-26.14-1.8-52.3-.18-78.42,.26-4.2-1.3-12.65-6.74-16.2Zm-46.47,152.01c-1.81-.2-3.66-.03-5.49-.03-10.11-.24-9.46,1.98-9.57-9.8-.27-27.28-.07-54.56-.14-81.85-.01-6.32-.21-12.64-.55-18.94-.2-3.58,.9-5.36,4.74-5.05,4.46,.36,11.48-.34,13.18,.77,1.3,.89,.58,8.36,.61,12.66,.22,29.61,.09,59.23,.17,88.84,.01,2.8,.52,4.39,.14,8.37-.62,3.02,1.04,5.5-3.09,5.03Z"/>
  <path class="cls-1" d="M629.74,227.69c-18.49,0-36.99-.11-55.48,.08-4.2,.04-5.55-1.36-5.41-5.46,.25-7.15,.27-14.33,0-21.48-.22-5.95,.5-11.58,3.43-16.83,1.1-1.98,1.07-4.16,1.07-6.33,0-32.48-.01-64.96,.03-97.44,0-2.6-.14-5-2.53-6.63-1.74-1.18-1.94-2.97-1.94-4.87,0-10.83,.1-21.65-.05-32.48-.05-3.56,1.44-4.58,4.78-4.57,37.32,.07,74.64,.08,111.96,0,4.11-.01,5.48,1.43,5.44,5.57-.18,18.15-.18,36.31,0,54.46,.04,4.1-1.24,5.64-5.4,5.58-12.66-.17-25.32-.15-37.98,0-3.45,.04-4.77-1.13-4.63-4.62,.14-3.31-.36-6.65-.45-9.98-.13-4.7-2.61-6.87-7.17-7.21-10.12-.77-10.25-.7-10.25,9.57,0,5.33,.26,10.68-.08,15.98-.3,4.68,1.08,6.59,6.08,6.33,7.48-.39,14.99,.05,22.48-.16,3.97-.11,5.76,1.06,5.66,5.35-.22,9.99-.18,19.99-.01,29.98,.06,3.44-1.1,4.76-4.6,4.69-8.49-.16-16.99,.05-25.49-.1-3.18-.05-4.54,1.02-4.5,4.29,.11,9.49,.08,18.99,0,28.48-.02,2.7,.91,4.13,3.76,3.89,.17-.01,.33,0,.5,0,13.08,.57,14.29-.49,14.84-13.53,.15-3.66,.11-7.33,.04-10.99-.05-2.96,1.24-4.14,4.22-4.12,12.83,.09,25.66,.09,38.48,0,3.21-.02,4.44,1.29,4.43,4.47-.07,21.15-.1,42.31,.02,63.46,.02,3.99-1.96,4.65-5.3,4.64-18.66-.08-37.32-.04-55.98-.04Z"/>
  <path class="cls-1" d="M983.86,200.28c.13-4.77-.55-9-3.36-13.15-2.56-3.8-3.89-8.34-4.84-12.97-2.24-10.95-2.58-22.14-4.44-33.13-3-17.72-5.95-35.44-8.97-53.15-2.97-17.38-6.08-34.74-8.95-52.13-.52-3.17-1.91-4.12-4.96-4.07-10.16,.13-20.32,.05-30.49,.05s-20.33,.08-30.49-.05c-4.01-.05-5.9,1.2-6.42,5.58-1.08,9.07-2.86,18.06-4.37,27.08-3.03,18.05-5.95,36.12-9.13,54.13-3.33,18.86-5.74,37.83-7.95,56.84-.62,5.31-2.28,10.42-6.28,14.37-1.77,1.75-2.43,3.84-2.41,6.32,.07,8.83,.15,17.66-.04,26.49-.09,3.88,1.29,5.29,5.21,5.26,16-.15,32-.16,47.99,0,4.06,.04,5.21-1.64,5.13-5.37-.16-7.66-.17-15.33,.01-22.99,.08-3.43-.69-6.04-3.61-8.17-2.48-1.81-3.58-4.72-4.38-7.67-.69-2.57-.32-4.21,2.91-4.17,7.49,.08,14.99,.02,22.49,.02,1.37,0,2.61,.09,3.1,1.8,1.2,4.16-1.14,10.05-5.3,11.7-2.54,1.01-3.19,2.47-3.18,4.87,.05,8.33,.11,16.66-.03,24.99-.06,3.61,1.23,5.02,4.97,4.99,17.66-.14,35.32-.16,52.99,.01,3.84,.04,4.89-1.43,4.8-4.99-.17-7.49-.19-15,0-22.49Zm-67.67-58.66c-8.44,.19-8.67,.27-7.75-8.22,1.35-12.33,3.06-24.61,4.68-37.43,2.13,1.27,2.2,2.84,2.38,4.28,1.56,12.34,2.96,24.69,4.66,37.01,.48,3.52-.81,4.29-3.97,4.36Z"/>
  <path class="cls-1" d="M128.37,53.86c-.32-6.44-2.83-13.12-8.03-16.37-4.93-3.08-11.47-4.61-17.61-4.77-31.3-.82-62.61-1.21-93.92-1.01-3.73,.02-5.52,1.14-5.45,5.15,.17,9.49,.1,18.98,.03,28.47-.02,2.37,.49,4.57,2.68,5.47,3.87,1.61,4.14,4.54,4.14,8.11-.09,34.31-.08,68.61-.01,102.91,.01,3.24-.19,5.93-3.84,7.06-2.22,.69-2.94,2.46-2.93,4.68,.02,9.83,.03,19.65-.02,29.48-.01,3.32,1.34,4.74,4.81,4.72,19.15-.1,38.31-.11,57.46,0,3.45,.02,4.71-1.14,4.65-4.62-.16-9.99-.07-19.98-.05-29.98,.01-1.74-.07-3.53-1.86-4.26-6.18-2.53-5.53-7.74-5.62-12.95-.07-4.11,1.26-5.5,5.44-5.47,13.15,.09,26.32,.01,39.46-.45,5.79-.2,12.24-1.2,15.8-5.89,2.94-3.86,4.71-9,4.89-14.41,.53-15.81,.97-31.62,.65-47.44,.31-16.16,.13-32.31-.67-48.44Zm-49.79,69.02c-1.95,5.54-8.72,8.73-14.26,6.88-1.7-.57-1.73-1.8-1.73-3.15,0-16.32,.01-32.65-.03-48.97,0-2.49,.97-3.46,3.55-3.62,9.78-.61,14.19,3.27,14.86,13.66,.24,3.65,.04,7.32,.04,10.99,0,8.15,.33,16.34-2.43,24.21Z"/>
  <path class="cls-3" d="M560.51,14.69c-184.1,0-368.2,0-552.3-.05-2.49,0-6.02,1.43-7.24-1.61C-.44,9.51-.04,5.48,.88,1.74,1.24,.3,2.79,.04,4.19,.02,5.85,0,7.52,0,9.19,0,376.55,0,743.92,0,1111.29,0c10.21,0,11.73,1.87,9.89,11.88-.32,1.75-1.06,2.73-2.87,2.75-2,.02-4,.05-6,.05-183.93,0-367.87,0-551.8,0Z"/>
  <path class="cls-1" d="M496.68,31.73c18,0,35.99,.12,53.99-.08,4.79-.06,6.39,1.5,6.33,6.35-.23,18.99-.22,37.98,0,56.97,.05,4.52-1.53,5.68-5.79,5.59-11.66-.24-23.33-.32-34.99,.03-5.04,.15-6.34-1.71-6.05-6.35,.26-4.13,.1-8.35-.45-12.45-.6-4.51-3.62-5.58-10.67-5-4.41,.36-3.19,3.5-3.22,5.89-.1,8.33,.16,16.67-.13,24.99-.14,4.1,1.42,5.2,5.22,5.09,7.16-.21,14.33,.06,21.49-.11,3.24-.07,4.5,1.13,4.47,4.34-.09,9.66-.13,19.33,.02,28.99,.06,3.61-1.49,4.53-4.82,4.44-6.99-.19-14.01,.17-20.99-.14-4.46-.2-6.32,1-6.05,5.81,.39,6.97,.28,13.99,.03,20.98-.14,3.84,.86,6.81,4.02,9.05,3.89,2.75,5.09,6.47,4.89,11.24-.35,8.31-.22,16.66-.04,24.98,.09,3.93-1.03,5.7-5.36,5.66-18.83-.18-37.66-.14-56.49-.02-3.31,.02-4.89-.8-4.83-4.43,.15-10.16-1.93-20.82,.48-30.38,4.69-18.65,1.71-37.23,2.4-55.79,.7-18.8,.14-37.64,.17-56.47,0-3.84,.13-7.61-2.25-11.04-.76-1.09-.71-2.87-.72-4.34-.06-9.66,.1-19.33-.1-28.99-.08-3.74,1.27-4.9,4.94-4.87,18.16,.14,36.33,.06,54.49,.06Z"/>
  <path class="cls-1" d="M1057.13,227.69c-18.16,0-36.32-.11-54.48,.08-4.17,.04-5.56-1.29-5.4-5.42,.27-7.15,.28-14.33,.01-21.48-.24-6.47,.09-12.61,4.77-17.69,1.49-1.62,1.28-3.7,1.3-5.7,.3-30.48,.5-60.95,.99-91.42,.08-5.13-1.45-9.48-4.04-13.6-2.31-3.67-3.15-7.49-3.02-11.82,.24-7.99,.19-15.99,.01-23.98-.08-3.57,.97-5.04,4.8-5.01,19.16,.15,38.32,.14,57.48,.02,3.94-.02,5.71,1.06,5.57,5.39-.29,8.82-.12,17.65-.07,26.48,.02,2.7-.1,5.04-3.73,5.14-1.95,.06-2.74,1.64-3.23,3.34-.75,2.6-.77,5.26-.77,7.93,0,32.48-.02,64.96,.07,97.44,0,2.04-1.44,5.19,1.89,5.88,3.21,.66,6.51-.2,8.24-3.34,2.09-3.79,3.41-7.9,3.4-12.34-.02-9.49,.09-18.99-.05-28.48-.05-3.17,.95-4.49,4.26-4.46,12.49,.12,24.99,.1,37.48,.03,3.42-.02,4.59,1.36,4.57,4.8-.11,27.81-.11,55.63,0,83.45,.02,3.84-1.56,4.82-5.08,4.8-18.33-.11-36.65-.05-54.98-.05Z"/>
  <path class="cls-3" d="M560.59,394.72c-183.94,0-367.88,0-551.82-.06-2.69,0-6.55,1.53-7.84-1.33-1.52-3.37-.84-7.53-.22-11.31,.25-1.52,1.68-1.95,3.11-1.98,1.83-.04,3.66-.04,5.5-.04,367.21,0,734.43,0,1101.64,0,11.22,0,11.29,.15,10.29,11.47-.21,2.33-1.04,3.31-3.33,3.23-1.83-.06-3.66,0-5.5,0-183.94,0-367.88,0-551.82,0Z"/>
  <path class="cls-3" d="M577.34,268.31c8,0,16,.13,23.99-.06,3.56-.09,5.2,.88,4.99,4.76-.28,4.98-.13,9.99-.05,14.99,.04,2.58-.7,4.22-3.65,4.03-2.98-.19-3.54,1.63-3.53,4.15,.06,11.83-.16,23.66,.11,35.48,.2,8.63,5.53,12.73,13.93,10.86,4.71-1.05,5.92-5.45,6.03-9.31,.36-12.65,.12-25.32,.18-37.97,.01-2.44-1.21-3.35-3.38-3.18-3.51,.28-4.16-1.64-4.08-4.61,.13-4.99,.15-10,0-14.99-.1-2.97,.93-4.17,4-4.16,16.83,.09,33.66,.07,50.48,0,2.8-.01,3.86,1.09,3.79,3.86-.12,5.16-.2,10.33,.02,15.49,.16,3.66-1.48,4.52-4.79,4.44-7.58-.19-7.16-.98-7.16,7.31,0,9.33,0,18.66,0,27.98,0,23.02-10.03,35.55-32.69,40.09-15.14,3.03-30.16,2.47-44.62-3.66-11.35-4.81-17.88-13.32-19.66-25.57-1.98-13.6-.95-27.27-1.03-40.91-.03-4.14-1.23-5.53-5.4-5.38-6.74,.24-6.75,0-6.76-6.8,0-4.16,.16-8.34-.05-12.49-.17-3.31,1.17-4.4,4.36-4.35,8.33,.13,16.66,.04,24.99,.04Z"/>
  <path class="cls-3" d="M699.48,353.75c-1.16,3.01-.87,5.51-.74,7.88,.2,3.76-1.12,5.61-5.12,5.46-4.82-.17-9.66-.11-14.49-.02-3.33,.07-4.92-1.28-4.83-4.73,.29-9.98,.54-19.96,.64-29.95,.03-3.13,1.47-4,4.31-3.98,9.49,.08,18.98,.04,28.48,.01,2.19,0,3.53,.71,4.67,2.85,3.25,6.1,13.53,8.56,19.29,4.9,3.8-2.41,3.68-8.13-.3-10.29-3.16-1.71-6.66-1.87-10.2-1.85-10.2,.07-20.26-.75-29.85-4.67-16.27-6.65-22.38-23.37-13.59-38.52,4.21-7.24,11.25-10.95,19.4-12.81,13.16-3,26.22-4.63,39.25,.51,4.89,1.93,9.09,4.76,12.39,8.89,.61,.77,1.16,1.91,2.27,1.65,1.47-.35,1.2-1.8,1.25-2.92,.06-1.33,.08-2.67,.02-3.99-.13-2.77,1.21-3.92,3.91-3.9,5,.05,9.99,.08,14.99-.01,2.62-.05,3.49,1.14,3.48,3.62-.07,9.32-.08,18.65,0,27.97,.02,2.8-1.12,3.74-3.89,3.71-10.16-.12-20.32-.12-30.47,0-2.88,.03-3.89-1.11-4.64-3.85-1.9-6.94-10.14-10.33-16.55-6.98-2.39,1.25-4.34,3.08-4.21,6.25,.14,3.5,2.3,5.43,5.15,6.69,3.93,1.73,8.16,1.39,12.31,1.41,9.56,.05,18.87,1.08,27.57,5.58,11.31,5.85,15.41,15.38,14.9,27.58-.5,12.21-6.95,20.62-17.81,24.75-14.94,5.67-30.23,5.7-45.24-.77-5.03-2.16-8.12-6.5-12.36-10.49Z"/>
  <path class="cls-3" d="M447.7,284.96c-7.56-11.15-17.71-16.22-30.59-16.57-10.99-.29-21.98-.06-32.97-.06v-.02c-11.66,0-23.32,.08-34.98-.05-3.4-.04-4.83,1.06-4.64,4.6,.23,4.32,.05,8.65,.05,12.98,.01,6.47,.02,6.76,6.53,6.45,4.6-.22,5.61,1.64,5.54,5.82-.22,12.31-.07,24.64-.08,36.96-.01,8,.66,7.85-7.51,7.56-3.13-.11-4.62,.86-4.51,4.22,.16,5.32,.14,10.65,0,15.98-.08,3.33,1.46,4.27,4.56,4.26,19.65-.08,39.3-.09,58.95,.01,3.33,0,4.39-1.37,4.29-4.5-.15-4.66-.36-9.35,.05-13.98,.43-4.93-1.44-6.72-6.18-5.97-.65,.11-1.33,.02-1.99,.02q-8.56-.01-8.41-8.78c.1-5.39,.21-5.29,5.44-3.85,15.6,4.31,29.82,2.64,41.97-9.36,7.99-7.89,10.33-27.1,4.48-35.72Zm-38.52,23.1c-3.28,3.21-7.36,3.62-11.6,2.92-1.82-.31-2.02-1.98-2.03-3.54-.02-2.82-.03-5.65-.02-8.47q.02-6.59,7.18-6.58c3.2-.35,7,.11,8.22,4.02,1.2,3.87,1.74,8.23-1.75,11.65Z"/>
  <path class="cls-3" d="M502.06,367.06c-14.16,0-28.32-.13-42.47,.08-4.22,.06-5.63-1.47-5.41-5.54,.25-4.65,.2-9.33,.02-13.98-.14-3.56,.98-5.13,4.82-5.01,8.21,.26,7.31,.57,7.33-7.65,.03-12.32-.15-24.65,.1-36.97,.09-4.32-1.11-5.91-5.6-5.7-6.58,.31-6.6,.03-6.61-6.47,0-4.33,.11-8.66-.04-12.99-.11-3.11,.95-4.57,4.27-4.56,20.32,.08,40.64,.06,60.96,0,2.83,0,3.82,1.2,3.77,3.91-.1,5.49-.11,10.99,0,16.48,.06,2.85-1.17,3.84-3.9,3.74-3.49-.13-7,.06-10.49-.05-2.57-.08-3.59,1.02-3.59,3.54,.04,14.49,.03,28.97-.01,43.46,0,2.29,.87,3.16,3.23,3.32,9.1,.61,13.4-3.36,13.65-12.89q.18-7.09,7.08-7.1c5.83,0,11.66,.06,17.49-.01,2.93-.04,4.18,1.15,4.16,4.17-.09,11.82-.1,23.65,0,35.47,.03,3.81-1.84,4.8-5.29,4.78-14.49-.1-28.98-.04-43.47-.04Z"/>
  <text class="cls-2" transform="translate(1085.62 94.81) scale(.86 1)"><tspan x="0" y="0">R</tspan></text>
  <ellipse class="cls-4" cx="1095.62" cy="83.28" rx="18.5" ry="19.5"/>
</svg>