<?xml version="1.0" encoding="utf-8"?>
<!-- Generator: Adobe Illustrator 26.5.0, SVG Export Plug-In . SVG Version: 6.00 Build 0)  -->
<svg version="1.1" id="Capa_1" xmlns="http://www.w3.org/2000/svg" xmlns:xlink="http://www.w3.org/1999/xlink" x="0px" y="0px"
	 viewBox="0 0 90 65" style="enable-background:new 0 0 90 65;" xml:space="preserve">
<style type="text/css">
	.st0{fill-rule:evenodd;clip-rule:evenodd;fill:#E4291C;}
</style>
<path id="Meal-icon" class="st0" d="M89,65h-5.2c-0.6,0-1-0.5-1-1c0,0,0,0,0,0V33.5c-2-5.8-3.1-11.8-3.3-17.9
	c0-13.2,9.2-15.2,9.3-15.2c0.3-0.1,0.6,0,0.8,0.2C89.9,0.8,90,1.1,90,1.4V64C90,64.5,89.5,65,89,65z M88,2.8c-2.2,1-6.4,4-6.4,12.8
	c0.1,5.7,1.1,11.3,3,16.7H88V2.8z M88,34.4h-3.2v28.6H88L88,34.4L88,34.4z M46.9,64c-17.5,0.2-31.9-13.9-32.1-31.4
	S28.7,0.7,46.2,0.5S78.1,14.4,78.3,32c0,0.1,0,0.2,0,0.3C78.4,49.7,64.3,63.9,46.9,64z M46.9,2.6C30.4,2.4,17,15.6,16.8,32
	c-0.2,16.4,13,29.8,29.4,30c16.4,0.2,29.8-13,30-29.4c0-0.1,0-0.2,0-0.3C76.3,16,63.2,2.7,46.9,2.6L46.9,2.6z M46.9,52.3
	c-11,0.1-20.1-8.7-20.2-19.8s8.7-20.1,19.8-20.2c11-0.1,20.1,8.7,20.2,19.8c0,0.1,0,0.1,0,0.2C66.7,43.3,57.8,52.2,46.9,52.3
	L46.9,52.3z M46.9,14.4c-9.9-0.1-18,7.8-18.1,17.7c-0.1,9.9,7.8,18,17.7,18.1c9.9,0.1,18-7.8,18.1-17.7c0-0.1,0-0.1,0-0.2
	C64.6,22.4,56.7,14.4,46.9,14.4z M8.9,22v10.3h1.6c0.6,0,1,0.5,1,1c0,0,0,0,0,0V64c0,0.6-0.5,1-1,1H5.3c-0.6,0-1-0.5-1-1V33.4
	c0-0.6,0.5-1,1-1h1.6V22c-4-0.3-7.1-3.8-6.9-7.9V1c0-0.6,0.5-1,1-1c0.6,0,1,0.5,1,1c0,0,0,0,0,0v9.8h2.6V1c0-0.6,0.5-1,1-1
	s1,0.5,1,1c0,0,0,0,0,0v9.8h2.5V1c0-0.6,0.5-1,1-1s1,0.5,1,1c0,0,0,0,0,0v9.8h2.6V1c0-0.6,0.5-1,1-1s1,0.5,1,1c0,0,0,0,0,0v13.1
	C16,18.2,13,21.7,8.9,22z M6.3,34.4v28.6h3.2V34.4L6.3,34.4L6.3,34.4z M13.8,12.9H2v1.3c-0.2,3.1,2.2,5.7,5.2,5.8c0.2,0,0.4,0,0.6,0
	c3.1,0.2,5.7-2.2,5.9-5.2c0-0.2,0-0.4,0-0.6L13.8,12.9L13.8,12.9z"/>
</svg>
